<?xml version="1.0" standalone="no"?>
<!DOCTYPE svg PUBLIC "-//W3C//DTD SVG 1.0//EN" "http://www.w3.org/TR/2001/REC-SVG-20010904/DTD/svg10.dtd">
<svg xmlns="http://www.w3.org/2000/svg" xmlns:xlink="http://www.w3.org/1999/xlink" id="body_1" width="300" height="225">

<g transform="matrix(0.1785714 0 0 0.1782884 0 0)">
    <path transform="matrix(1 0 0 1 0 0)"  d="M1106 18C 1109.17 22.8909 1118.2 21.4272 1120 16C 1115.07 16.0135 1110.78 16.9078 1106 18M270 129C 275.596 117.472 289.501 108.775 299.83 102.05C 325.278 85.483 351.343 69.5038 380 58.9121C 390.377 55.0768 402.987 52.2551 414 51.9854C 416.279 51.9296 424.793 49.9187 424.793 54.0818C 424.793 56.3212 421.586 57.0554 419.995 57.6945C 414.361 59.9575 409.142 62.6953 404.424 66.5579C 396.684 72.896 387.647 77.474 380.09 84.0895C 375.078 88.4778 370.782 94.0675 366.09 98.8302C 360.981 104.015 353.87 109.813 352 117C 355.511 119.4 358.851 123.177 363 124.421C 370.61 126.704 378.034 119.505 382.92 114.675C 385.11 112.509 387.512 108.635 390.985 108.636C 395.535 108.636 397.681 115.949 399.88 118.995C 403.622 124.178 407.799 125.867 414 126C 413.899 121.672 411.992 117.262 412.793 113C 414.341 104.768 420.694 97.4662 425.636 91C 428.151 87.709 429.368 83.2025 432.299 80.3025C 436.757 75.892 445.383 72.8708 451 69.9784C 469.204 60.6034 487.863 54.1354 508 50.7415C 522.928 48.2255 541.747 43.2311 555.891 51.5332C 560.967 54.5126 560.453 61.8862 561.889 67C 563.088 71.2708 565.561 74.3846 568 78C 577.516 76.4877 579.029 67.6775 585.005 61.4436C 590.701 55.501 600.904 53.069 609 53.0787C 619.31 53.0912 630.482 57.9523 640 61.4714C 654.855 66.9636 669.594 72.7219 682.911 81.6335C 690.569 86.7585 697.091 93.6982 704.039 99.679C 709.633 104.494 716.991 107.791 721.907 113.328C 727.357 119.467 732.014 126.477 737.37 132.75C 740.745 136.703 744.908 139.846 748.039 144.015C 751.127 148.124 754.437 151.971 757.611 155.999C 759.103 157.893 760.242 160.689 762.386 161.953C 766.449 164.35 769.75 159.397 772.3 157.053C 777.92 151.89 786.709 150.748 787 142C 778.855 139.708 775.274 129.997 769.845 124.089C 762.28 115.858 755.836 106.515 746.985 99.4553C 737.481 91.8741 724.535 85.6464 718.133 74.9105C 712.639 65.6956 728.913 49.9307 715.995 45.804C 711.07 44.2306 705.375 44.9818 701 47.6628C 696.401 50.4807 691.94 55.5587 686 54.4869C 676.516 52.7758 667.89 45.8556 659 42.2863C 646.07 37.0948 632.474 35.194 619.089 31.8302C 611.551 29.9357 604.442 25.6498 596.83 24.2593C 587.913 22.6301 578.049 24.3569 569 23.9607C 557.189 23.4435 545.796 23.9993 534 24C 522.383 24.0007 510.472 23.473 499 25.6188C 490.788 27.1548 482.83 29.8683 474.985 32.6714C 471.078 34.0676 467.144 36.3606 463 36.8673C 458.57 37.4091 455.137 35.6383 450.91 35.1289C 443.71 34.2611 435.24 33.7222 428 34.0393C 420.626 34.3623 413.218 37.0413 406 38.4861C 402.034 39.2799 397.937 38.6011 394 39.5325C 389.779 40.5311 386.098 43.0934 382 44.4777C 377.503 45.9966 372.584 46.0295 368.17 47.5454C 363.191 49.2551 358.884 53.1825 354 55.2786C 349.13 57.3687 343.878 58.4458 339 60.5695C 329.227 64.824 319.948 70.8412 311.17 76.6805C 300.108 84.0383 291 94.321 280.174 102.054C 276.77 104.485 273.971 107.648 270.561 110.077C 266.195 113.188 262.07 115.199 259.189 120C 257.846 122.238 254.531 127.723 257.608 129.883C 260.368 131.821 266.883 129.396 270 129M1110 77C 1111.01 73.9294 1113 71.1569 1113.7 68C 1114.6 63.8973 1114 59.1848 1114 55C 1140.19 52.9331 1165.22 55.4769 1191 59.7407C 1198.89 61.0453 1207.18 61.7094 1214.96 63.7045C 1232.69 68.2516 1250.13 76.3776 1267 83.4777C 1278.06 88.1322 1284.43 101.767 1296 105C 1294.64 113.55 1281.89 114.251 1275.04 116.875C 1272.03 118.028 1269.34 119.963 1265.99 119.817C 1262.6 119.67 1259.42 118.217 1256 118C 1256.04 113.462 1256.19 108.314 1258.27 104.17C 1260 100.735 1264.17 98.1056 1264.54 94.0541C 1264.84 90.6464 1261.49 89.433 1259.01 88.1613C 1253.34 85.2589 1249.62 82.3029 1243 82C 1240.29 87.046 1235.57 90.7977 1232.74 96C 1228.1 104.498 1225.81 114.018 1222.1 122.911C 1220.17 127.548 1215.34 134.269 1217.87 139.518C 1220.44 144.84 1229.25 143.984 1234 145.931C 1238.14 147.629 1240.18 150.835 1243.61 153.401C 1245.51 154.814 1247.7 155.107 1249.99 154.601C 1253.2 153.89 1254.86 151.551 1257.26 149.566C 1261.21 146.301 1265.76 143.352 1270 140.463C 1278.91 134.395 1289.77 130.861 1300 127.616C 1305.87 125.754 1312.03 125.307 1318 123.87C 1326.32 121.865 1335.5 118.609 1344.04 118.218C 1354.96 117.718 1366.16 121.923 1377 120C 1377 116.615 1377.64 112.408 1376.44 109.188C 1373.22 100.608 1360.1 102 1353 102C 1334.47 102 1316.57 108 1298 108C 1301.5 101.255 1309.04 99.8844 1316 99L1316 99L1316 94C 1308.43 91.8553 1305.88 83.2085 1300.38 78.1343C 1293.72 71.9929 1285.55 68.5303 1278 63.9915C 1274.39 61.8185 1271.68 58.4613 1268 56.3673C 1264.53 54.3933 1260.59 54.1852 1257 52.588C 1252.13 50.4254 1246.71 48.2386 1242.09 45.6011C 1239.51 44.1281 1237.54 41.4897 1234.7 40.5131C 1231.63 39.4574 1228.16 40.1847 1225 39.3912C 1201.43 33.4755 1178.28 28.366 1154 26.1705C 1150.26 25.8328 1146.7 26.8395 1143 26.7407C 1133.5 26.4871 1123.51 25.8876 1114 27.2091C 1100.8 29.0439 1087.94 32.6219 1075 35.5409C 1071.38 36.3574 1067.62 35.6945 1064.04 36.7994C 1052.15 40.4659 1041.4 48.8542 1029 51.1566C 1024.5 51.9919 1021.53 48.4482 1018 46.2708C 1014.2 43.924 1010.13 42.7876 1006 41.2438C 1003.57 40.3379 1000.82 38.668 998.149 39.6473C 991.006 42.2689 1001.67 53.3475 1001.7 58C 1001.73 62.1515 1000.01 68.2368 997.877 71.7909C 996.273 74.4601 992.031 76.9082 994.072 80.5216C 995.754 83.5001 1000.02 84.4885 1002.68 86.3796C 1004.5 87.6787 1006.03 89.3672 1008.18 90.142C 1014.28 92.3347 1019.05 85.5363 1024 83.0177C 1037.23 76.2926 1049.39 68.8347 1063.83 64.7415C 1065.97 64.1351 1067.82 62.6758 1070.04 62.3525C 1072.77 61.9558 1075.4 63.2145 1078 63.8311C 1084.44 65.3589 1092.13 66.7224 1097.96 69.9698C 1102.6 72.5521 1104.35 76.3727 1110 77L1110 77L1106 18z" stroke="none" fill="#3A3427" fill-rule="nonzero" />
    <path transform="matrix(1 0 0 1 0 0)"  d="M778 77L778 73C 787.249 75.0602 797.617 73.5763 807 71.4714C 810.05 70.7872 812.837 69.3248 816 69.1196C 821.141 68.7861 827.955 71.1927 832.996 72.3936C 841.601 74.4431 841.278 90.2267 850.786 89.4537C 854.594 89.1442 854.934 83.6997 856.017 81.0007C 857.359 77.6559 859.792 75.2245 863.001 73.608C 866.736 71.7264 871.002 71.9537 875 71.0262C 878.082 70.3113 880.839 68.5118 884 68.1582C 887.708 67.7434 891.402 69.0634 895 69.7393C 902.303 71.1113 909.946 71.8394 917 74.2061C 940.395 82.0557 963.96 95.597 982.385 112.053C 991.298 120.014 1000.23 127.949 1008.68 136.411C 1012.75 140.496 1016.35 146.186 1022 148C 1022.85 154.536 1026.92 157.794 1030.34 163.019C 1035.61 171.058 1040.58 179.567 1045.11 188.004C 1047.02 191.571 1046.84 199.654 1051.13 201.199C 1056.37 203.084 1059.78 194.4 1062.47 191.375C 1063.8 189.893 1065.47 188.674 1066.26 186.791C 1068.11 182.395 1065.13 178.834 1063.48 175C 1060.08 167.109 1055.65 158.556 1054.26 150C 1052.86 141.331 1060.85 140.193 1062 133C 1058.31 131.513 1054.93 128.623 1050.91 128.13C 1045.08 127.415 1039.41 130.445 1034 127.106C 1027.49 123.085 1022.78 116.225 1017.02 111.26C 1004.48 100.464 991.243 91.137 978 81.2994C 971.685 76.6079 965.699 71.1505 958.83 67.2377C 945.719 59.7689 930.49 52.7296 916 48.3241C 905.739 45.2045 895.451 44.329 885.004 42.696C 882.147 42.2495 879.643 40.7848 876.83 40.26C 866.528 38.3374 854.477 37.4597 844 38.0432C 833.045 38.6533 822.742 42.9768 812 44.5709C 798.903 46.5146 785.687 47.6666 773.001 51.8997C 766.859 53.9489 761.098 57.4102 754.961 59.7191C 748.634 62.0991 736.11 67.2576 733.623 74.1698C 731.757 79.3544 740.008 88.9177 745.004 89.5494C 748.123 89.9437 751.231 87.6514 754 86.5402C 761.964 83.3439 769.273 77.8931 778 77M1284 59C 1288.13 61.6664 1292.55 66.1674 1297.29 67.5247C 1302.45 69.0027 1307.83 66.2649 1313 66.1289C 1319.45 65.9594 1326.6 67.4161 1333 68.2886C 1344.75 69.8899 1356.62 75.2339 1366.96 80.8796C 1377.56 86.668 1385.85 99.1709 1393.04 108.559C 1404.32 123.291 1410.51 139.033 1417.34 156C 1419.75 161.975 1423.37 167.856 1425.2 174C 1426.74 179.161 1427.05 184.75 1428.49 190C 1431.08 199.449 1434.35 208.277 1436 218C 1440.51 218.55 1450.41 224.111 1454.4 220.972C 1457.87 218.232 1455.29 209.663 1454.84 206C 1454.04 199.369 1450.9 194.176 1448.64 188C 1447.1 183.804 1446.78 179.496 1445.53 175.286C 1444.2 170.802 1441.63 166.363 1439.86 162C 1429.09 135.418 1416.5 109.933 1399.02 87.0803C 1389.76 74.9772 1380.12 65.5323 1367.09 57.5848C 1363.76 55.556 1360.46 52.7732 1356.71 51.5455C 1353.92 50.6284 1350.87 51.1957 1348 50.6605C 1342.47 49.6289 1337.46 46.5015 1332 45.2346C 1320.36 42.5352 1311 44.9333 1300 48.3086C 1294.68 49.9406 1285.75 53.4479 1284 59M1550 134C 1550.43 124.693 1555.23 119.989 1561.58 113.729C 1572.06 103.383 1587.37 92.4226 1603 94.1744C 1611.57 95.1355 1617.72 102.713 1626 104L1626 104L1626 112C 1620.4 110.427 1617.54 105.509 1612.58 102.804C 1602.96 97.5688 1589.6 101.938 1587 113C 1593.84 116.646 1594 124.068 1594 131C 1594 144.583 1589.56 160.911 1576 167C 1575.34 162.583 1576.86 159.229 1577.97 155C 1580.29 146.214 1583.66 137.272 1582.56 128C 1582.12 124.279 1581.83 117.458 1577.77 115.761C 1573.58 114.008 1568.06 117.966 1567.32 122.174C 1566.53 126.681 1570.19 130.505 1569.6 135C 1569.17 138.349 1566.92 141.102 1565.38 144C 1562.31 149.794 1559.67 155.948 1557.15 162C 1555.53 165.898 1554.36 169.351 1550 170.772C 1541.05 173.681 1532.97 168.314 1525 164.856C 1510.67 158.641 1499.64 146.993 1487.83 137.263C 1485.49 135.341 1482.58 134.462 1480.17 132.661C 1473.26 127.497 1467.69 123.037 1460 118.981C 1451.88 114.7 1444.91 111.575 1436 109.04C 1433.62 108.362 1427.81 106.723 1426.17 109.603C 1425.18 111.347 1426.68 113.32 1427.6 114.715C 1430.41 118.987 1431.62 125.504 1436.06 128.25C 1455.86 140.498 1482.58 149.94 1493.76 172.001C 1499.38 183.076 1506.84 193.108 1510.95 205.015C 1512.06 208.261 1511.96 211.682 1512.75 215C 1514.56 222.582 1516.99 230.219 1517.83 238C 1518.7 246.184 1518 254.773 1518 263C 1518 282.825 1517.06 303.331 1507.07 320.986C 1500.2 333.112 1491.89 347.611 1481.16 356.807C 1475.99 361.234 1468.98 365.509 1463 368.763C 1459.71 370.554 1455.31 371.949 1452.65 374.648C 1447.33 380.048 1444.67 389.83 1446 397C 1456.48 396.755 1467.49 392.579 1477 388.373C 1480.2 386.959 1484.24 385.798 1486.4 382.857C 1489.2 379.036 1489.59 369.742 1490 365C 1494.92 365.769 1496.63 368.122 1497 373C 1507.92 370.157 1511.09 358.038 1517.39 350C 1523.81 341.807 1529.54 332.965 1533.02 323C 1535.79 315.052 1535.88 307.044 1537.68 299C 1539.47 291.005 1540.58 283.078 1542.04 275C 1542.58 271.99 1543.89 269.099 1543.77 266C 1543.23 252.039 1539.28 239.392 1535.87 226C 1532.83 214.096 1530.65 201.837 1524.61 190.999C 1523.03 188.163 1518.2 181.854 1520.21 178.427C 1522.08 175.244 1531.45 181.687 1534 182.726C 1538.62 184.608 1543.17 184.847 1548 185.808C 1557.08 187.613 1566.7 189.757 1576 189.985C 1594.02 190.428 1615.5 179.587 1624.08 162.999C 1627.41 156.57 1627.42 148.769 1629.79 142C 1631.66 136.641 1635.88 132.441 1637 127C 1632.2 122.298 1634.21 114.249 1633.98 108C 1633.75 101.552 1631.31 93.5485 1627.93 88.0393C 1625.25 83.6675 1621.06 81.6692 1617 78.8757C 1599.91 67.1343 1575.78 65.4547 1559.29 80.4677C 1554.88 84.4758 1549.63 88.4816 1546.08 93.2747C 1542.21 98.4958 1540.79 105.078 1534 107C 1534.03 98.5651 1538.53 86.4821 1545.14 80.858C 1548.49 78.0159 1551.97 75.7888 1555.98 74.0656C 1557.8 73.2853 1560.27 72.3269 1560.4 69.9961C 1560.64 65.9999 1553.84 63.5392 1551.01 62.2747C 1548.07 60.9554 1545.15 58.9725 1541.96 58.3402C 1537.9 57.5349 1534.04 58.8209 1530 58.8209C 1526.37 58.8209 1522.82 57.5664 1519.17 58.2639C 1515.71 58.9259 1512.7 61.2986 1509.83 63.2075C 1506.48 65.4407 1503.08 67.5789 1500.82 71.0146C 1492 84.4264 1498.57 103.332 1508.01 114.366C 1511.75 118.736 1518.3 120.877 1523 124.141C 1531.56 130.083 1539.28 135.988 1550 134M55.9992 59.5146C 51.9665 60.3046 37.9424 61.005 37.5463 66.1089C 37.257 69.8369 41.1448 72.8477 42.5702 76C 43.6362 78.3575 43.3949 82.3024 45.5995 83.9684C 48.7256 86.3308 52.8295 83.1759 56 82.6643C 64.3971 81.3092 72.9675 88.6079 80.9599 86.4128C 86.184 84.9781 95.593 72.3219 90.6813 67.5718C 84.9131 61.9933 74.3416 62.3411 67.0394 60.9607C 63.1079 60.2175 60.1059 58.7102 55.9992 59.5146M128 124C 126.562 133.016 117.011 128.72 112.04 124.671C 106.901 120.484 102.356 113.837 99.3009 108C 97.4343 104.433 96.7287 99.9662 93.1528 97.608C 89.5937 95.261 85.8914 96.8214 82 96.8209C 76.8838 96.8202 71.9881 95.1299 67 94.3248C 59.6784 93.1432 51.8315 95.7246 45.0008 98.1814C 42.4953 99.0825 38.9708 100.201 38.3765 103.208C 37.3328 108.491 43.5789 108.971 47 110.348C 55.6597 113.833 66.2445 116.937 74 122.065C 86.8053 130.532 99.819 138.066 115 141.471C 119.614 142.506 124.35 141.494 128.985 142.144C 131.527 142.5 133.587 144.289 136.08 144.573C 139.049 144.91 141.906 143.004 145.004 143.188C 154.329 143.743 163.615 145.568 173 144.911C 189.243 143.772 207.575 136.983 222 129.83C 234.705 123.531 246.303 112.162 260 108.155C 262.529 107.415 272.053 105.174 268.914 100.589C 266.784 97.479 261.46 99.8165 259 101.039C 250.751 105.14 241.84 107.497 234.715 113.665C 229.567 118.121 224.059 120.033 218 122.889C 197.821 132.4 165.457 143.16 149.459 120.021C 147.148 116.679 145.387 112.868 144.183 108.999C 139.403 93.6454 149.734 70.1997 168 70.2584C 172.217 70.272 178.601 73.0145 181.946 75.5054C 184.548 77.443 185.906 79.908 189 81C 188.474 71.4763 177.588 68.5745 170 65.1636C 157.585 59.5829 141.652 59.866 129.17 65.5347C 124.937 67.457 121.46 71.337 117.576 73.8958C 112.127 77.4849 107.198 78.1842 103.684 84.4244C 100.403 90.2512 103.084 96.6473 105.369 102.286C 109.922 113.52 114.693 122.333 128 124M202 103C 197.331 101.416 192.762 98.0902 190.005 93.9105C 188.204 91.1815 187.693 87.8329 184.856 85.858C 182.11 83.947 178.129 83.6323 175 82.5409C 165.267 79.1453 156.947 85.7573 161.367 96C 165.695 106.029 178.112 112.986 189 111.812C 194.628 111.205 200.975 109.082 202 103M278 455C 278.987 448.739 286.434 446.697 285.847 440.003C 285.263 433.334 277.809 426.957 271.09 429.603C 263.751 432.493 261.369 442.146 264.144 448.91C 265.688 452.673 269.077 454.717 272.039 457.256C 276.636 461.195 281.744 466.116 288.09 466.87C 301.116 468.417 307.259 453.569 305.56 443C 304.075 433.757 298.704 426.005 294.242 418C 284.758 400.989 274.032 384.299 263.352 368.004C 259.829 362.629 255.077 358.859 252.164 353.014C 248.14 344.938 235.513 330.833 239.607 321.148C 242.532 314.229 253.935 321.467 257.83 323.88C 263.927 327.658 268.88 331.202 276 333.211C 281.362 334.724 287.482 334 293 334C 305.427 334 318.307 333.988 330 329.329C 348.369 322.011 362.583 310.764 374.569 295.093C 376.97 291.952 379.893 289.484 381.806 285.96C 386.632 277.07 387.492 267.565 389.518 258C 391.836 247.054 394.596 236.306 394.957 225C 395.304 214.11 391.956 203.682 391.093 193C 388.931 166.226 375.628 139.797 352 125.741C 346.555 122.502 342.518 117.934 336 117L336 117L336 114C 329.061 112.93 323.818 106.762 317 104.514C 314.661 103.743 311.639 102.565 309.322 104.043C 303.127 107.994 313.821 115.111 317.17 116.416C 320.942 117.885 325.115 117.887 328.91 119.595C 342.597 125.755 354.834 136.567 364.241 148.015C 368.127 152.745 375.307 160.642 375.798 166.985C 375.924 168.611 375.5 170.156 374.721 171.571C 368.392 183.079 360.625 170.861 352.999 168.779C 349.411 167.798 343.468 170.373 344.377 174.854C 345.383 179.821 354.685 181.325 358.424 183.708C 366.177 188.65 371.519 195.594 375.011 204C 392.141 245.232 375.083 296.492 333.83 314.884C 328.787 317.133 323.483 320.924 318 321.786C 307.608 323.421 293.348 326.038 283 323.529C 253.897 316.473 232.881 288.316 226.529 260C 225.573 255.739 226.241 251.316 225.83 247C 225.162 239.975 223.474 231.993 224.619 225C 226.575 213.047 229.646 197.513 235.746 187C 238.47 182.306 241.068 176.412 244.568 172.3C 247.166 169.248 251.654 167.271 252.508 163.005C 253.89 156.095 239.91 156.922 236.209 159.024C 230.72 162.142 228.178 169.703 225.565 175C 217.705 190.931 212 208.099 212 226C 212 239.448 212.331 252.672 214.209 266C 215.294 273.7 218.029 281.38 219.64 289C 221.525 297.918 222.72 307.247 225.978 315.83C 228.101 321.427 232.012 326.586 234.64 332C 238.799 340.566 241.982 350.498 247.195 358.424C 254.085 368.899 262.369 378.383 269.265 389.001C 277.241 401.28 285.519 412.986 292.501 426C 295.132 430.904 298.08 439.453 294.972 444.811C 293.053 448.12 289.086 448.545 286.17 450.566C 283.187 452.632 281.693 454.419 278 455M691.039 104.039C 682.985 107.887 677.694 117.167 670.91 122.57C 666.375 126.181 658.879 127.263 653.576 129.787C 649.512 131.721 641.693 129.208 639.608 134.144C 636.059 142.546 649.39 143.638 650.378 150.058C 652.003 160.617 638.426 169.938 641.573 180.996C 642.552 184.434 645.207 186.488 647.371 189.155C 649.836 192.193 652.821 197.387 657.656 195.378C 661.701 193.698 663.013 184.726 664.86 181.039C 670.917 168.949 675.549 152.279 686.3 143.329C 691.136 139.303 696.114 143.811 700.999 145.221C 703.141 145.839 706.287 146.048 707.353 143.566C 709.025 139.678 704.69 134.036 704.391 130C 703.995 124.643 708.001 120.224 707.751 115.04C 707.466 109.134 696.579 101.393 691.039 104.039M964 138C 965.431 132.496 970.476 128.795 970.941 123C 971.612 114.631 961.029 103.852 952.001 106.897C 947.532 108.404 944.828 112.54 941.675 115.725C 934.642 122.831 929.696 129.509 924.319 137.999C 922.21 141.329 916.838 146.614 917.567 150.856C 918.145 154.218 923.531 155.404 925.961 157.174C 930.256 160.302 933.993 165.07 939.985 163.552C 945.025 162.275 947.14 157.049 949.55 153.015C 951.408 149.905 954.04 148.085 956.444 145.486C 959.233 142.469 959.859 139.303 964 138M1414 372C 1398.06 364.878 1377.95 362.724 1363.92 351.236C 1355.6 344.424 1347.72 329.311 1344.93 319C 1343.61 314.139 1344 308.985 1344 304C 1344 289.047 1346.24 279.083 1355.33 267.001C 1357.72 263.834 1362.02 254.477 1366.88 255.037C 1369.28 255.313 1370.23 257.992 1370.66 260.005C 1371.72 265.067 1371 270.849 1371 276C 1371 295.222 1366.09 312.329 1362.52 331C 1361.59 335.886 1363.59 343.288 1369.09 344.677C 1375.88 346.392 1379.59 339.181 1381.73 334C 1387.28 320.56 1388.48 306.226 1389.83 292C 1394.14 246.76 1383.38 203.573 1367.18 162C 1362.53 150.081 1352.57 140.686 1348 129C 1344.65 128.577 1341.39 128.044 1338 128.004C 1335.67 127.976 1333.33 127.946 1331 128.015C 1327.09 128.132 1320.9 129.291 1322.53 134.691C 1323.32 137.3 1325.84 139.448 1327.4 141.616C 1330.78 146.325 1334.82 153.098 1334.94 159C 1335.05 164.086 1332.87 169.518 1330.6 174C 1329.14 176.9 1326.28 180.264 1327.76 183.721C 1330.19 189.375 1337.93 185.191 1342 184.778C 1345.12 184.461 1347.57 185.781 1349.96 187.685C 1357.17 193.442 1356.51 201.919 1358.72 210C 1361.71 220.958 1368.89 233.045 1367.26 244.922C 1366.58 249.861 1361.83 245.697 1359.09 245.457C 1356.44 245.224 1354.39 247.225 1353.09 249.305C 1347.41 258.339 1340.5 269.182 1336.68 279.17C 1335.05 283.436 1334.86 288.514 1334.12 293C 1331.75 307.349 1331.82 324.122 1337.7 338C 1338.99 341.023 1341.42 343.288 1343.2 346C 1354.67 363.467 1370.9 377.202 1391 383.949C 1395.19 385.356 1403.52 392.06 1407.69 390.377C 1413.8 387.91 1413.77 377.434 1414 372M334.129 134.046C 331.613 135.352 329.967 138.421 328.25 140.576C 323.322 146.76 319.636 153.404 315.406 160.039C 307.969 171.706 305.667 183.001 301.62 196C 299.146 203.948 297.577 212.068 295.272 220C 291.957 231.41 287.995 242.136 286.3 254C 285.312 260.918 286.105 268.031 285.285 275C 284.148 284.671 286.747 294.527 287.872 304C 288.324 307.809 287.964 313.412 291.549 315.972C 295.495 318.79 303.619 316.083 307.56 314.361C 315.882 310.727 313.194 303.268 313.054 296C 312.911 288.577 313.58 280.445 314.09 273C 314.655 264.744 314.295 256.211 315.174 248C 317.191 229.159 322.687 208.641 329.467 191C 332.359 183.476 336.579 176.311 339.955 169C 341.445 165.775 341.972 162.188 343.557 159C 345.765 154.56 350.68 151.087 351.522 146.015C 352.566 139.729 339.666 131.174 334.129 134.046M252 140.594C 246.137 141.922 239.648 141.016 234 142.85C 226.872 145.166 220.244 150.241 213.83 153.958C 209.087 156.706 203.805 158.059 199.259 161.309C 185.271 171.308 173.733 189.487 169.609 206C 168.589 210.082 169.612 213.914 169.911 218C 170.943 232.07 175.71 241.745 184.22 252.896C 187.54 257.246 194.731 265.547 200.981 263.378C 207.148 261.238 206.63 253.62 203.231 249.325C 201.276 246.854 198.425 245.27 196.34 242.907C 192.204 238.219 188.34 231.027 186.637 225C 183.582 214.184 189.941 203.254 194.472 194C 198.461 185.854 201.543 178.979 208.08 172.301C 214.502 165.742 221.899 162.511 230 158.916C 233.585 157.325 236.351 154.303 240 152.853C 247.675 149.803 259.97 150.045 268 151.464C 277.506 153.143 286.572 156.761 296 158.714C 299.683 159.478 304.329 160.724 307.941 159.141C 312.777 157.022 313.244 150.313 307.941 148.569C 302.83 146.887 297.197 146.742 292 145.448C 279.293 142.281 265.31 137.58 252 140.594M758 228C 759.47 232.503 764.935 233.396 766.238 238.086C 766.879 240.391 765.855 243.339 762.981 242.824C 755.689 241.518 755.65 227.408 756.623 222C 759.875 203.928 774.289 188.603 790 180.362C 813.441 168.066 841.639 162.466 868 166.188C 871.617 166.699 874.489 168.939 878 169.701C 885.401 171.308 891.921 172.167 898.911 175.633C 912.34 182.291 924.264 193.235 934.439 204C 938.441 208.234 942.986 212.151 946.168 217.089C 949.718 222.599 952.391 229.089 955.22 235C 960.375 245.773 967.268 255.783 968.705 268C 969.874 277.94 962.987 276.342 957.344 280.742C 954.378 283.056 954.103 286.543 954 290C 957.568 289.847 961.544 288.62 964.999 289.858C 971.485 292.182 973.643 298.87 975.099 305C 978.71 320.19 971.505 335.495 969.274 350.17C 968.374 356.091 976.864 368.938 983.776 366.214C 986.694 365.064 987.091 361.606 987.924 358.999C 989.354 354.519 991.638 350.665 992.6 346C 995.787 330.533 997.016 312.778 995.911 297C 995.603 292.616 994.254 288.399 994.039 284C 993.611 275.265 991.002 267.422 988.873 259C 986.498 249.601 982.908 241.059 979.68 232C 978.399 228.404 977.805 224.701 975.98 221.286C 971.767 213.401 965.118 206.338 959.211 199.714C 945.957 184.855 930.423 172.444 913 162.731C 890.265 150.055 868.502 141.232 842 143.089C 823.716 144.371 801.667 147.553 785.001 155.565C 779.92 158.007 777.229 162.704 772.87 165.957C 768.862 168.948 764.357 170.689 760.666 174.206C 743.526 190.537 728.796 219.487 735.469 243.714C 742.242 268.303 772.299 268.393 783.547 246.911C 788.744 236.984 778.067 221.7 767.039 222.256C 763.449 222.437 760.732 226.023 758 228M1072 418C 1072 414.062 1071.62 409.896 1072.26 406C 1073.09 400.939 1074.61 397.166 1072.94 392C 1070.33 383.905 1063.11 376.743 1059.23 369C 1052.16 354.877 1049.28 339.442 1049.96 324C 1050.41 313.652 1050.91 301.455 1063 298C 1064.02 305.906 1067.28 315.156 1071.53 321.941C 1073.34 324.82 1077.17 327.312 1080.14 324.257C 1084.34 319.936 1081.43 309.498 1082.32 304C 1083.3 298.003 1086.01 292.525 1087.95 286.83C 1090.67 278.845 1092.88 270.856 1096.05 263C 1099.18 255.255 1105.43 249.432 1109.74 242.424C 1111.74 239.171 1112.25 235.309 1114.22 232C 1120.41 221.594 1130.62 211.036 1140.01 203.378C 1153.07 192.731 1169.94 188.448 1186 185.741C 1200.57 183.287 1214.59 181.906 1229 186.949C 1240.77 191.068 1252.81 195.167 1261.11 205.089C 1264.94 209.668 1269.36 214.234 1272.56 219.289C 1276.06 224.83 1276.87 230.27 1284 232C 1284.4 234.783 1289.9 247.188 1293.26 240.677C 1295.36 236.597 1293.87 229.956 1292.26 226C 1288.06 215.619 1281.74 207.694 1274.55 199.286C 1270.28 194.284 1266.53 188.67 1261.87 184.018C 1249.15 171.322 1229.93 159.208 1213 153.09C 1208.1 151.319 1203.03 151.499 1198 150.486C 1191.78 149.234 1185.27 146.403 1179 146.043C 1169.66 145.508 1161.88 147.22 1153 149.505C 1150.38 150.18 1147.63 149.802 1145.01 150.474C 1130.58 154.172 1114.98 162.341 1103.33 171.63C 1100.48 173.906 1098.58 177.108 1095.9 179.564C 1090.54 184.462 1085.35 187.999 1081.04 194.001C 1071.9 206.727 1066.01 220.126 1061.33 235C 1058.78 243.091 1055.98 250.465 1055.17 259C 1054.67 264.251 1055.42 269.804 1056.21 275C 1056.65 277.949 1058.2 280.932 1057.52 283.961C 1056.38 289.104 1050.03 293.49 1047.29 298.004C 1040.98 308.377 1036.94 318.263 1033.92 330C 1030.63 342.785 1034.17 355.805 1037.8 368C 1041.5 380.442 1045.38 392.68 1053.56 403C 1058.77 409.557 1062.64 417.7 1072 418M526 152.44C 510.466 154.935 496.47 160.933 483.514 169.707C 480.957 171.438 469.673 178.169 474.608 181.958C 476.828 183.663 480.486 182.151 483 182.183C 487.89 182.245 493.225 184.413 498 185.499C 515.123 189.395 534.929 194.099 550 203.456C 562.085 210.96 573.242 222.064 579.201 235C 581.994 241.062 583.302 250.472 591.961 248.655C 597.665 247.458 598.628 241.951 599.41 237C 601.199 225.659 599.69 211.843 595.995 201C 589.858 182.988 576.854 160.181 557.83 153.688C 548.998 150.673 535.144 150.971 526 152.44M586 160C 586.505 167.598 591.731 173.316 594.757 180.039C 596.635 184.213 596.885 188.699 598.29 193C 599.849 197.772 602.334 202.196 603.791 207C 610.566 229.344 608.628 250.271 605.424 273C 603.727 285.044 601.73 297.983 596.276 309C 592.81 316.001 587.74 322.532 583.376 329C 580.561 333.172 579.146 338.484 576.111 342.381C 566.696 354.471 553.748 364.901 541.089 373.38C 536.944 376.156 533.307 380.248 528.911 382.547C 526.174 383.978 522.101 383.323 519.894 385.603C 518.269 387.282 518.025 389.866 518.761 392C 522.483 402.795 535.564 404 545 404C 558.897 404 570.991 399.555 584 395.028C 594.918 391.228 603.982 387.998 613.826 381.675C 616.723 379.815 618.522 376.871 621.174 374.725C 628.681 368.65 637.437 363.155 643.536 355.485C 657.133 338.39 666.725 315.755 668.83 294C 669.549 286.57 668.362 279.37 668.039 272C 666.828 244.332 660.324 218.648 642.209 197C 628.189 180.246 609.876 160.509 586 160M800 183.714C 795.034 185.171 784.466 190.508 783.362 196.04C 782.383 200.947 787.114 207.407 788.667 212C 793.074 225.031 798.109 238.283 799.816 252C 800.296 255.85 800.967 260.128 800.871 264C 800.784 267.557 799.384 271.022 801.229 274.37C 804.363 280.057 813.435 281.771 819 284.204C 821.498 285.297 824.239 286.285 826.941 285.242C 834.329 282.392 829.735 266.943 829.17 261C 828.603 255.045 829.633 248.933 828.696 243.015C 828.036 238.844 825.794 235.088 824.746 230.999C 821.972 220.178 819.598 210.114 814.543 200C 811.458 193.827 809.942 180.798 800 183.714M870 324C 864.73 319.118 865.961 310.753 860.852 306.559C 854.119 301.033 844.759 299.567 837 296.272C 818.893 288.582 800.463 281.906 781 278.245C 773.053 276.749 764.906 276.954 757 275.675C 751.007 274.706 745.015 272.804 739 272.129C 726.215 270.693 714.437 273.662 702 275.675C 697.926 276.334 692.932 275.115 689.228 277.318C 684.721 279.999 682.909 294.3 686.179 298.396C 689.619 302.705 697.932 296.536 702 296.108C 711.989 295.057 725.135 294.576 735 296.468C 738.825 297.202 742.22 299.146 746 300C 746 306.392 744.9 317.388 753.982 317.808C 759.825 318.078 758.584 311.638 760.893 308.015C 763.714 303.59 769.764 299.943 775 299.306C 780.569 298.63 787.532 301.535 793 302.629C 812.707 306.571 829.953 313.978 848 322.573C 852.152 324.55 856.605 326.655 861 328.012C 863.749 328.86 867.3 328.618 869.566 330.603C 872.743 333.384 871.796 338.268 872.171 342C 872.935 349.613 874.203 357.47 875.611 365C 880.029 388.621 886.903 411.672 898.111 433C 901.512 439.472 903.766 447.35 909.012 452.677C 913.42 457.155 920.835 448.666 924.999 446.336C 927.134 445.141 930.392 444.191 931.303 441.657C 933.282 436.155 927.693 427.56 927 422C 920.581 418.444 919.146 409.585 917.486 403C 914.518 391.226 910.214 379.757 907.24 368C 903.306 352.448 901 338.123 901 322C 901 314.928 900.869 306.828 902.88 300.001C 903.646 297.404 904.619 294.826 907.143 293.513C 910.819 291.602 918.361 291.575 918.628 285.981C 918.908 280.125 911.579 276.159 908.899 271.711C 906.23 267.281 905.545 258.07 906.214 253C 907.537 242.967 910.667 231.797 913.428 222C 914.81 217.098 918.033 211.15 917.748 206C 917.552 202.453 914.913 199.394 914 196C 908.59 193.478 903.046 184.761 896.214 187.746C 892.326 189.445 892.025 194.429 891.104 198C 889.174 205.49 885.385 212.536 883.103 220C 877.307 238.96 873.923 258.421 871.826 278C 871.216 283.704 869.484 289.24 869.089 295C 868.423 304.722 870 314.303 870 324M1211 244C 1199.75 238.626 1193.51 218.81 1195.21 207C 1195.85 202.549 1202.37 194.994 1198.97 190.742C 1195.87 186.864 1183.01 189.932 1179 191.229C 1173.38 193.044 1167.51 194.897 1163.43 199.464C 1158.25 205.269 1155.72 221.638 1158.6 228.911C 1160.45 233.576 1165.97 235.624 1170 237.9C 1178.79 242.859 1185.97 247.439 1196 249.765C 1202.66 251.309 1210.34 252.662 1211 244M457.09 190.561C 446.325 193.353 439.987 202.094 434.255 210.834C 425.613 224.011 412.127 240.817 416.317 258C 416.967 260.666 418.84 262.586 420.006 265C 422.011 269.15 422.185 273.263 425.34 276.957C 428.233 280.343 432.224 282.504 435.385 285.619C 444.524 294.626 451.883 303.717 465 306.244C 467.762 306.776 470.92 308.46 473.721 307.239C 477.066 305.782 477.201 301.124 476.142 298.17C 473.534 290.897 467.918 285.946 466 278C 463.411 267.275 456.791 257.341 457.13 246C 457.255 241.814 459.21 238.088 459.791 234C 460.859 226.488 460.794 218.367 462.599 211C 463.76 206.26 467.716 201.937 467.833 197.04C 467.965 191.474 461.72 189.36 457.09 190.561M480.279 193.757C 477.194 195.139 477.114 199.121 476.733 202C 475.746 209.456 479.292 217.224 488 213.775C 491.627 212.339 499.014 209.278 499.663 204.858C 500.499 199.161 484.994 191.643 480.279 193.757M1212.13 195.862C 1205.7 198.762 1208.41 210.53 1215.83 206.856C 1218.17 205.699 1221.3 202.963 1221.41 200.146C 1221.58 195.692 1215.31 194.43 1212.13 195.862M1237 245C 1245.24 244.932 1255.71 244.051 1261.58 237.557C 1269.95 228.302 1259.9 209.929 1252 203.831C 1247.51 200.37 1242.7 196.578 1236.96 195.483C 1235.27 195.16 1232.21 194.729 1231.18 196.604C 1230.14 198.478 1231.99 200.593 1233.06 201.961C 1236.57 206.461 1239.8 210.491 1241.7 216C 1245.4 226.744 1237.11 234.646 1237 245M252.148 206.028C 248.669 208.088 249.172 211.772 250.441 214.999C 253.422 222.58 258.25 228.402 256.366 236.999C 255.003 243.218 247.788 248.197 242 250.272C 239.599 251.133 235.914 250.405 234.179 252.603C 229.762 258.201 236.207 264.281 241.996 262.097C 247.087 260.177 249.784 256.007 253.375 252.286C 260.798 244.594 269.498 236.485 269.96 225C 270.262 217.489 262.301 200.018 252.148 206.028M521 210.928C 517.753 212.184 511.998 215.267 511.448 219.093C 510.57 225.198 518.151 235.213 524.786 232.257C 533.146 228.532 533.528 206.084 521 210.928M543.319 215.043C 540.539 216.8 541.416 220.307 541.715 223C 542.25 227.807 542.463 233.242 541.025 237.911C 538.975 244.568 534.928 249.648 530.475 254.841C 528.682 256.931 525.029 259.833 525.462 262.942C 526.144 267.833 533.934 265.258 537 265.498C 546.628 266.255 556.472 272.756 566 266.87C 569.104 264.953 573.081 262.826 575.297 259.87C 583.544 248.867 568.529 235.12 562.157 226.996C 559.008 222.981 549.618 211.062 543.319 215.043M1228 215C 1225.3 214.358 1222.78 214.037 1220 214.004C 1216.72 213.964 1211.16 213.037 1208.6 215.603C 1202.24 221.987 1212.63 234.845 1220.68 229.681C 1223.16 228.094 1223.06 224.7 1224.34 222.3C 1225.72 219.714 1227.28 217.887 1228 215M1141.21 220.086C 1136.7 222.291 1133.36 230.527 1131.89 235C 1126.97 249.889 1128.9 265.231 1133.43 280C 1137.18 292.196 1139.14 304.177 1144.43 316C 1150.83 330.337 1161.58 343.841 1171.14 356.171C 1177.87 364.854 1184.53 376.453 1196 379.351C 1199.56 380.25 1203.44 379.238 1207 378.729C 1215.43 377.525 1223.35 375.857 1231 371.866C 1241.09 366.606 1251.35 359.914 1259.94 352.401C 1262.72 349.967 1267.4 345.156 1266.51 341.051C 1265.13 334.687 1258.05 334.643 1253.09 333.742C 1247.6 332.744 1240.89 330.281 1236 327.645C 1230.45 324.655 1226.84 319.925 1222 316.105C 1215.97 311.343 1209.27 307.435 1203.68 302.076C 1195.69 294.419 1188.85 284.948 1182.38 275.999C 1174.35 264.879 1165.31 254.763 1158.12 243C 1155.8 239.209 1154.91 234.899 1152.88 231C 1151.07 227.512 1146.36 217.563 1141.21 220.086M491 221.529C 479.609 224.141 477.722 235.206 482.506 244.87C 487.074 254.096 500.86 260.805 510.941 257.347C 517.65 255.046 513.694 248.435 511.985 244.004C 511.318 242.273 511.116 240.203 509.988 238.684C 508.333 236.453 505.675 235.538 504.318 232.945C 503.035 230.494 503.422 227.699 502.44 225.189C 500.629 220.563 495.126 220.583 491 221.529M1151 645C 1147.44 645.355 1143.55 647.234 1140 646.255C 1121.41 641.12 1120.76 621.111 1110.3 608.468C 1106.18 603.495 1096.24 600.414 1090 600C 1088.09 594.26 1083.68 597.417 1082.47 602.005C 1080.05 611.214 1078.32 622.456 1079.09 632C 1079.92 642.195 1084.93 654.95 1091.82 662.555C 1095.43 666.537 1100.55 669.258 1104.91 672.309C 1107.68 674.255 1109.75 677.578 1113.09 678.566C 1120.05 680.623 1129.75 677.931 1135.96 674.727C 1140.69 672.287 1146.08 667.835 1148.43 662.985C 1150.27 659.193 1149.07 653.44 1153.15 651.028C 1157.22 648.616 1163.46 650.422 1168 649.485C 1178.57 647.306 1188.18 641.855 1199 641C 1198.54 647.022 1194.27 648.748 1190.71 653.081C 1182.1 663.55 1170.41 672.581 1160.37 681.633C 1156.22 685.382 1152.91 690.352 1149 694.409C 1141.6 702.095 1133.52 709.411 1126.51 717.45C 1120.78 724.016 1114.9 731.591 1108 736.956C 1100.95 742.438 1090.11 741.329 1082.09 744.857C 1076.58 747.279 1072.07 753.237 1068.03 757.486C 1061 764.868 1055.56 771.119 1050.5 780.17C 1041.91 795.551 1039.88 816.289 1045.36 833C 1049.6 845.916 1057.41 857.599 1064.34 869C 1069.6 877.647 1077.13 881.646 1086 885.299C 1092.23 887.866 1099.62 889.344 1104.26 882.812C 1108.22 877.233 1102.29 872.941 1099.33 868.714C 1097.28 865.805 1096.06 862.323 1094.86 859C 1088.25 840.696 1084.99 820.938 1091 802L1091 802L1093 802C 1094.65 808.928 1093.61 815.958 1094.09 823C 1095.41 842.262 1098.73 864.495 1115.46 876.911C 1125.01 884.005 1139.09 888.299 1151 885.468C 1171.35 880.628 1190.8 853.807 1187.56 833C 1186.98 829.247 1187.15 819.534 1181.96 819.377C 1176.17 819.201 1174.64 828.375 1169 830.197C 1146.59 837.432 1128.46 822.058 1118.97 803.015C 1115.75 796.551 1113.87 788.114 1115.6 781C 1117.55 772.992 1123.19 766.142 1124.73 758C 1125.9 751.767 1121.88 744.859 1123.89 739C 1125.36 734.725 1128.85 730.792 1131.25 727C 1137.58 717.037 1143.96 709.554 1152.25 701.116C 1158.49 694.77 1163.22 686.696 1169.49 680.564C 1171.75 678.358 1174.86 677.251 1177.25 675.142C 1187.42 666.132 1197.28 657.176 1208 648.789C 1213.98 644.109 1220.84 640.521 1226.58 635.622C 1233 630.134 1239.54 622.106 1248 620C 1247.88 631.037 1240.27 639.405 1235.9 649C 1234.19 652.769 1233.69 658.399 1230.45 661.258C 1226.72 664.549 1220.46 662.389 1216.19 665.228C 1208.8 670.13 1204.01 681.943 1201.39 690C 1200.32 693.289 1198.91 696.466 1199.2 700C 1199.59 704.623 1201.64 708.805 1203.18 713.089C 1206.72 722.935 1208.06 732.363 1219 736.045C 1229.81 739.682 1237.87 736.224 1248 732.812C 1255.81 730.182 1262.78 726.946 1263 718C 1259.27 717.013 1254.15 716.417 1251.28 713.683C 1246.86 709.48 1245.97 700.39 1242.74 695C 1240.62 691.454 1235.94 682.598 1243.04 680.971C 1247.31 679.992 1250.79 687.626 1252.9 690.424C 1254.64 692.731 1255.91 695.408 1258.21 697.235C 1265.01 702.635 1273.99 702.002 1282 700.815C 1285.48 700.299 1293.57 697.835 1294.51 693.892C 1295.42 690.077 1291.07 685.679 1288.95 682.926C 1285.88 678.958 1281.86 676.621 1278 673.536C 1272.21 668.905 1265.31 662.622 1258 660.572C 1251.17 658.656 1238.09 662.16 1241.69 650C 1246.83 632.607 1260.99 618.614 1273.38 606.379C 1275.71 604.077 1279.05 602.927 1281.15 600.39C 1282.69 598.522 1283.14 596.015 1284.56 594.053C 1286.76 591.018 1290.18 589.189 1292.76 586.522C 1296.95 582.201 1300.89 575.657 1306.02 572.462C 1310.42 569.718 1315.98 574.933 1320 576.671C 1322.05 577.557 1325.3 578.623 1326.95 576.396C 1328.94 573.715 1326.17 568.984 1326.07 566C 1325.91 560.929 1328.83 555.129 1331.8 551.129C 1336.41 544.937 1343.26 539.976 1348.56 534.335C 1352.86 529.754 1355.8 523.997 1359.74 519.129C 1365.67 511.818 1372.92 505.497 1378.95 498.254C 1397.24 476.274 1411.23 452.698 1423.63 427C 1426.78 420.462 1431.25 414.766 1433.98 408C 1436.21 402.499 1437.01 396.648 1438.71 391C 1444.82 370.739 1450.23 350.396 1455.51 330C 1457.13 323.716 1458.62 316.454 1459.57 310C 1459.99 307.159 1459.5 303.742 1460.6 301.062C 1463.03 295.141 1469.38 300.112 1473.82 298.254C 1479.36 295.928 1485.04 284.673 1485.81 279C 1490.24 246.526 1456.31 229.164 1429 225.576C 1420.55 224.466 1409.5 225.012 1401 226.134C 1397.87 226.546 1395.12 228.043 1393.9 231.094C 1392.08 235.646 1394.78 241.811 1400.04 241.848C 1406.68 241.895 1413.14 239.726 1420 240.019C 1424.26 240.202 1427.03 242.723 1431 243.691C 1434.59 244.565 1438.39 244.274 1441.96 245.39C 1453.38 248.959 1461.18 255.542 1464.7 267C 1465.61 269.963 1467.21 273.789 1466.59 276.937C 1465.8 280.977 1462.12 280.012 1460.73 276.937C 1457.99 270.879 1459.55 263.169 1453.81 258.514C 1451 256.234 1446.35 255.175 1443.74 258.319C 1441.79 260.666 1441.99 264.141 1442 267C 1442.05 273.349 1443 279.614 1443 286C 1443 305.795 1439.24 325.905 1434.08 345C 1425.95 375.045 1418.73 407.512 1399.8 432.961C 1396.02 438.038 1391.2 446.359 1385.82 449.657C 1380.71 452.784 1370.15 453.752 1367.08 459.29C 1364.09 464.68 1374.31 468.218 1373.55 474.001C 1372.42 482.626 1361.98 491.212 1356.63 497.464C 1354.23 500.278 1353.08 503.942 1350.47 506.61C 1348 509.135 1344.68 510.564 1342.18 513.104C 1331.79 523.705 1322.7 535.687 1312.23 546.23C 1305.34 553.17 1297.36 558.669 1290.17 565.286C 1272.53 581.532 1255.73 597.689 1236 611.348C 1221.29 621.529 1208.74 633.497 1191 638.491C 1188.07 639.316 1184.99 638.793 1182 639.129C 1176.69 639.725 1167.98 643.808 1163.62 638.566C 1160.35 634.649 1164.75 626.928 1163.43 622C 1161.6 615.142 1153.56 603.533 1146 602.387C 1142.55 601.865 1139.41 603.723 1136 603.806C 1132.18 603.9 1127.65 601.802 1124.32 604.603C 1120.39 607.903 1122.4 613.953 1123.65 618C 1125.26 623.218 1127.45 628.844 1132.13 632.11C 1137.51 635.864 1148.98 638.602 1151 645L1151 645L778 77z" stroke="none" fill="#3A3427" fill-rule="nonzero" />
    <path transform="matrix(1 0 0 1 0 0)"  d="M1175 251C 1176.43 261.379 1185.4 269.12 1192.03 276.665C 1205.9 292.447 1220.48 307.784 1240 316.629C 1253.08 322.554 1264.72 324.388 1276 313.71C 1284.45 305.708 1295.71 291.11 1296.77 279C 1297.55 270.13 1292.87 259.096 1288.04 252.001C 1285.14 247.723 1280.38 239.643 1274.76 238.662C 1270.26 237.876 1264.3 247.826 1261.49 250.711C 1255.26 257.087 1244.43 260.117 1235.96 262.157C 1223.62 265.13 1207.93 263.303 1196.01 259.1C 1189.01 256.629 1182.32 252.396 1175 251M1115.04 251.047C 1112 252.523 1110.44 255.889 1108.22 258.255C 1100.86 266.067 1098.24 271.829 1095.39 282C 1093.98 287.026 1090.32 290.959 1088.93 296C 1086.48 304.868 1087.71 314 1086.83 323C 1086.58 325.577 1086.27 328.6 1084.99 330.896C 1082.68 335.05 1078.88 336.383 1081.03 341.831C 1083.2 347.317 1088.77 351.217 1092.61 355.428C 1097.76 361.072 1101.93 369.434 1108.26 373.871C 1112.92 377.138 1118.87 378.268 1124 380.55C 1129.12 382.829 1133.62 386.412 1139 388.095C 1145.98 390.28 1152.9 389.609 1160 389.089C 1164.78 388.738 1170.44 388.832 1174.66 386.152C 1177.54 384.322 1178.32 381.156 1177.29 377.996C 1176.17 374.538 1173.46 371.971 1171.51 369C 1169.15 365.411 1167.5 361.581 1164.67 358.274C 1162.64 355.905 1159.91 354.364 1157.98 351.892C 1154.43 347.355 1153.03 341.855 1150.07 337.089C 1148.42 334.443 1145.8 332.621 1144.14 329.961C 1138.49 320.848 1134.36 308.166 1130.96 298C 1128.7 291.27 1128.09 283.892 1125.83 277C 1123.49 269.832 1124.47 262.196 1122.28 255.019C 1121.26 251.678 1118.61 249.317 1115.04 251.047M469.607 255.175C 465.997 257.224 470.32 266.266 471.37 268.911C 473.199 273.519 476.128 277.549 478.157 282.039C 482.036 290.627 484.72 300.33 491.75 307.138C 497.122 312.341 507.893 313.301 515 314.41C 529.962 316.743 546.033 318.813 561 315.153C 564.987 314.178 568.198 311.732 572 310.329C 575.551 309.02 579.746 309.528 582.961 307.397C 592.193 301.275 595.086 288.078 596.424 278C 596.935 274.156 598.247 267.42 592.941 266.372C 586.479 265.095 581.025 272.522 575 273.726C 567.188 275.287 557.955 277.789 550 277.946C 544.666 278.051 539.297 276.674 534 276.17C 529.584 275.749 525.345 276.119 521 274.985C 513.623 273.061 505.968 271.146 499 268.005C 493.462 265.508 488.517 261.721 482.91 259.422C 480.372 258.381 471.935 253.854 469.607 255.175M1420 267.572C 1408.98 270.117 1403.13 282.697 1409.03 292.857C 1410.33 295.104 1412.81 296.008 1414.83 297.454C 1418.12 299.811 1422.19 304.86 1426.85 303.302C 1435.47 300.426 1424.58 290.844 1424.63 286.968C 1424.69 283.103 1430.19 282.377 1431.97 279.518C 1436.34 272.522 1425.98 266.19 1420 267.572M418.263 282.797C 414.447 284.391 413.374 292.434 413.26 296C 412.869 308.25 418.2 323.287 424.641 333.576C 430.394 342.765 435.865 352.991 443.714 360.634C 450.966 367.696 459.198 372.737 467.985 377.434C 473.7 380.488 478.185 385.104 485 385.87C 492.281 386.687 499.274 382.466 506 380.232C 508.955 379.251 512.15 379.049 515 377.772C 527.725 372.072 540.588 362.973 550.714 353.391C 554.543 349.769 557.245 345.083 561.015 341.349C 564.155 338.239 575.511 329.087 569.258 324.028C 566.458 321.763 561.874 323.7 559 324.691C 553.162 326.704 546.151 327.252 540 327.83C 527.888 328.968 514.932 326.02 503 324.3C 493.714 322.962 484.132 322.438 475 320.076C 465.195 317.541 454.469 315.69 446 309.696C 440.469 305.781 436.892 300.642 432.563 295.576C 429.681 292.201 424.126 280.348 418.263 282.797M801.318 312.042C 797.297 314.592 799.187 322.991 798.911 327C 798.16 337.896 793.807 349.622 790.495 360C 789.198 364.065 788.299 372.449 784.57 374.972C 780.919 377.443 772.606 374.018 770.171 378.564C 768.644 381.415 772.665 386.379 773.672 389C 775.482 393.712 774.646 399.151 773.625 404C 771.457 414.292 767.117 426.228 761.215 435C 757.827 440.035 755.61 444.608 752.877 449.911C 751.685 452.221 748.961 454.285 748.831 457.035C 748.519 463.651 762.949 468.931 768 466.775C 774.146 464.151 777.234 459.132 781.116 454.039C 785.874 447.796 791.055 441.971 794.745 435C 797.22 430.326 800.267 425.983 802.111 421C 803.804 416.427 804.264 411.465 806.195 407C 815.76 384.891 823.89 362.943 827.806 339C 828.551 334.438 829.97 328.464 828.258 324.001C 825.856 317.741 818.782 315.417 813 313.38C 809.837 312.265 804.498 310.026 801.318 312.042L801.318 312.042L1175 251z" stroke="none" fill="#3A3427" fill-rule="nonzero" />
    <path transform="matrix(1 0 0 1 0 0)"  d="M680 326C 680.417 334.993 686.994 341.493 689.36 350C 695.246 371.166 697.084 393.338 692.482 415C 690.312 425.214 684.131 435.347 678.189 443.816C 675.833 447.174 671.843 449.974 670.608 454C 668.871 459.662 680.175 471.623 685.961 470.623C 689.681 469.981 692.027 465.845 693.971 463C 699.933 454.278 703.802 444.489 705.051 434C 707.134 416.51 712.276 397.877 709.791 380C 708.368 369.767 704.469 359.407 700.405 350C 696.688 341.394 690.216 327.577 680 326M911.742 333.042C 908.899 335.222 909.902 341.89 910.039 345C 910.577 357.14 919.318 361.14 927.996 367.568C 931.54 370.193 933.975 373.846 937.089 376.906C 946.663 386.311 957.989 394.23 967.255 404.089C 982.865 420.701 995.982 440.395 1005.71 461C 1010.07 470.218 1014.47 480.121 1017.08 490C 1019.6 499.584 1020.69 509.721 1024.46 519C 1027.79 527.207 1031.75 529.341 1040 530.424C 1043.43 530.875 1047.64 531.544 1050.57 529.142C 1053.06 527.101 1052.92 523.896 1052.57 521C 1051.76 514.361 1051.31 506.324 1049.15 500.015C 1047.85 496.235 1044.72 493.575 1043.07 489.985C 1038.49 480.034 1036.32 468.797 1031.32 459C 1024.78 446.188 1015.63 434.274 1009.99 421C 1008.16 416.684 1003.69 410.838 1004.67 406.004C 1005.57 401.524 1014.01 398.085 1010.38 393.275C 1004.26 385.169 997.448 396.331 991.089 393.624C 988.687 392.602 986.986 390.244 985.084 388.549C 978.638 382.807 974.125 376.149 968.001 370.184C 964.118 366.403 960.996 361.891 956.982 358.29C 948.046 350.274 937.586 344.14 927.001 338.877C 923.406 337.089 916.011 329.771 911.742 333.042M476 506C 460.75 501.923 443.752 496.143 430.004 488.272C 410.142 476.9 393.07 460.538 376.833 444.711C 368.124 436.222 359.59 425.638 353.718 415C 351.808 411.542 348.917 408.052 348.438 404C 347.732 398.023 354.536 394.149 355 388C 345.579 387.779 342.951 382.813 336.805 376.804C 333.089 373.171 329.033 369.817 326.768 365C 322.367 355.643 323.528 343.169 310 344.089C 305.716 344.381 298.529 344.939 296.194 349.144C 293.917 353.244 295.991 361.779 297.36 366C 301.717 379.437 306.634 392.789 313.615 405.089C 318.746 414.132 324.895 422.2 330.292 431C 338.55 444.467 348.232 459.118 360.174 469.892C 365.415 474.621 373.151 476.094 378.625 480.714C 384.292 485.498 386.968 492.758 392.456 497.606C 394.758 499.641 397.801 500.113 400.424 501.589C 406.425 504.968 411.809 509 418 512.142C 429.577 518.017 442.464 523.055 455.039 526.414C 458.896 527.443 464.878 530.483 468.682 527.971C 471.518 526.099 470.928 521.92 471.444 519C 472.288 514.216 475.622 510.844 476 506M650.519 355.047C 648.052 356.491 647.132 359.547 645.675 361.816C 643.899 364.583 640.401 366.438 640.337 370.04C 640.204 377.627 650.15 382.814 654.996 387.209C 659.671 391.45 663.258 397.087 667.2 402C 670.011 405.504 677.559 417.971 683.366 413.968C 686.383 411.887 688.511 405.493 687.356 402.039C 685.157 395.46 675.696 390.445 671.545 384.83C 667.199 378.952 666.533 371.383 662.697 365.424C 660.465 361.958 656.006 351.834 650.519 355.047M1244 452L1243 446C 1235.3 447.213 1230.54 452.404 1222 451C 1224.76 445.535 1232.34 444.41 1238 443C 1236.58 438.185 1232.95 436.739 1229 434.037C 1223.65 430.374 1219.08 426.812 1213 424.351C 1208.41 422.494 1204.51 419.503 1200 417.525C 1191.4 413.757 1181.98 412.135 1173 409.573C 1163.03 406.729 1153.52 403.134 1143 403.004C 1132.66 402.876 1121.36 396.079 1113.81 405.58C 1112.52 407.21 1111.02 408.899 1110.62 411.015C 1109.14 418.906 1121.29 426.254 1128 425.892C 1132.79 425.633 1137.09 423.724 1142 424.094C 1147.44 424.505 1152.78 426.612 1158 428.091C 1170.97 431.768 1183.73 436.415 1196 442.015C 1199.98 443.831 1203.14 446.756 1207 448.701C 1210.23 450.332 1215.03 450.826 1216.11 455C 1217.1 458.831 1212.83 459.778 1210 459.956C 1202.07 460.456 1193.95 460.041 1186 459.999C 1166.23 459.896 1146.08 452.901 1128 445.797C 1124.59 444.458 1120.25 443.553 1117.34 441.277C 1115.23 439.624 1113.68 435.025 1110.7 434.832C 1104.41 434.424 1100.02 449.267 1102.46 453.737C 1104.75 457.93 1110.64 460.261 1115 461.323C 1117.79 462.003 1121.18 462.013 1123.14 464.434C 1126.96 469.143 1120.76 478.448 1126.43 481.928C 1130.9 484.674 1133.56 477.657 1136.21 475.563C 1139.51 472.962 1144.09 472.797 1148 473.761C 1161.54 477.098 1174.99 480.114 1189 480.907C 1192.72 481.117 1196.3 480.038 1200 480.129C 1206.36 480.286 1212.57 481.494 1219 480.896C 1243.24 478.64 1267.65 469.353 1289 458.11C 1300.74 451.925 1309.48 443.035 1320.01 435.29C 1333.56 425.328 1345.29 412.387 1355.57 399.169C 1358.96 394.81 1364.78 389.005 1364.71 383.015C 1364.63 376.756 1355.71 372.294 1354 366C 1348.55 366.433 1346.69 370.363 1342.98 373.957C 1339.5 377.338 1335.54 379.749 1331 381.467C 1319.31 385.895 1309.43 388.238 1297 389.089C 1292.01 389.432 1287.01 390.691 1282 389.61C 1274.74 388.042 1265.64 385.023 1259 381.626C 1255.46 379.813 1252.58 376.844 1249 375.165C 1244.19 372.912 1231.72 377.059 1229.61 382.14C 1226.25 390.208 1240.22 398.64 1246.04 401.115C 1252.34 403.793 1259.39 407.877 1266 409.526C 1270.97 410.767 1276.91 410.065 1282 409.996C 1288.02 409.915 1297.4 405.222 1302.38 410.703C 1304.33 412.845 1303.28 415.701 1302.04 417.911C 1299.05 423.262 1293.64 427.094 1288.68 430.501C 1283.12 434.316 1277.44 437.811 1272 441.829C 1264.11 447.662 1253.85 451.917 1244 452M1080.59 369.046C 1078.42 370.701 1079 374.635 1079 377L1079 377L1079 400C 1078.97 415.838 1075.3 434.266 1069.49 449C 1065.58 458.925 1058.92 469.353 1057.34 480C 1056.69 484.407 1059 487.824 1059.74 492C 1060.42 495.897 1059.29 500.127 1060.43 503.941C 1061.09 506.142 1063.03 508.304 1065.46 506.914C 1067.51 505.745 1068.69 502.886 1069.94 500.999C 1073.63 495.429 1076.56 489.856 1079.72 484C 1085.6 473.084 1092.46 459.066 1095.42 447C 1097.01 440.474 1096.39 432.792 1097.62 426C 1099.45 415.807 1102.84 404.35 1102.94 394C 1103.01 387.714 1098.8 385.66 1095.04 381.482C 1092.45 378.612 1090.61 375.156 1088.14 372.189C 1086.49 370.211 1083.4 366.903 1080.59 369.046M455.018 383.801C 448.84 385.695 445.458 395.329 441.289 399.791C 436.319 405.11 429.71 405.681 423 407.255C 419.538 408.068 414.433 407.958 413.333 412.189C 411.21 420.348 421.447 422.33 421.292 429.018C 421.219 432.194 419.208 435.114 418.113 438C 413.578 449.96 407.128 464.69 421.015 472.094C 423.558 473.45 426.861 475.896 429.895 474.998C 436.085 473.167 436.855 460.203 438.378 455C 443.5 437.504 456.611 423.023 464.88 407.004C 466.454 403.956 470.019 401.399 470.628 397.95C 471.489 393.077 459.534 382.416 455.018 383.801L455.018 383.801L680 326z" stroke="none" fill="#3A3427" fill-rule="nonzero" />
    <path transform="matrix(1 0 0 1 0 0)"  d="M946 393C 940.742 393.415 939.508 396.522 936.304 400.254C 933.717 403.267 927.595 405.468 926.434 409.147C 923.233 419.294 932.024 428.423 941.96 425.427C 946.344 424.106 948.717 419.641 950.996 416C 952.268 413.969 954.238 411.515 954.253 409C 954.287 403.45 946.961 399.048 946 393M1034 440C 1039.42 439.296 1044.5 437.035 1050 437.008C 1053.65 436.991 1059.19 439.05 1062.57 437.393C 1067.78 434.834 1063.42 425.308 1060.99 422.259C 1052.89 412.117 1044.78 414.726 1034 417.583C 1031.49 418.248 1024.68 419.17 1023.87 422.133C 1023.32 424.142 1025.3 426.437 1026.42 427.87C 1029.49 431.799 1032.42 435.192 1034 440M743 443C 739.014 440.725 735.159 438.997 730.999 437.096C 727.87 435.665 725.206 433.168 722.004 431.954C 715.945 429.656 710.916 437.582 712.518 442.957C 713.487 446.205 716.515 448.132 719.015 450.154C 728.859 458.118 740.044 456.587 743 443M669 475C 668.462 465.177 658.933 458.435 651.289 453.46C 634.679 442.649 618.874 436.565 599 434.971C 595.58 434.697 592.403 433.384 589 433.108C 585.619 432.834 582.351 433.681 579 433.911C 568.924 434.601 558.433 435.159 549 439.349C 540.355 443.188 532.147 449.795 524.715 455.576C 519.08 459.959 512.581 464.495 508.229 470.26C 504.654 474.996 502.491 480.781 499.738 486C 497.184 490.84 493.842 495.199 491.499 500.17C 487.391 508.887 484.634 518.185 480.781 527C 473.573 543.489 476.155 564.766 479.461 582C 480.457 587.195 483.324 598.853 490.867 597.573C 493.256 597.168 493.755 595.007 494.242 592.981C 495.486 587.796 496.523 582.967 498.487 578C 500.519 572.859 500.606 567.098 502.698 562C 508.24 548.494 517.614 535.165 527.616 524.576C 533.855 517.969 540.933 513.291 548 507.714C 566.403 493.189 585.25 481.454 608 475.244C 612.375 474.05 616.466 471.75 621 471.185C 629.686 470.103 640.345 470.175 649 471.428C 655.911 472.429 661.923 474.98 669 475M846 550C 855.305 549.967 859.271 544.205 865.754 538.254C 878.577 526.483 890.266 513.625 903.3 502.039C 915.491 491.203 931.983 484.085 946 475.994C 954.524 471.074 962.216 465.007 971 460.475C 974.886 458.469 980.603 457.9 983.677 454.701C 989.066 449.093 979.69 438.027 974 436.532C 969.994 435.48 966.595 438.117 963 439.396C 952.71 443.056 942.646 448.437 933 453.64C 925.471 457.702 919.218 463.356 911.996 467.796C 903.562 472.981 894.193 477.005 886.039 482.544C 875.775 489.517 865.91 498.622 857.711 507.852C 852.276 513.971 842.627 520.784 840.434 529C 838.575 535.968 843.747 543.666 846 550M881 438.718C 871.231 441.106 862.673 446.867 853 449.391C 835.761 453.891 818.584 455.64 801 457.714C 793.508 458.598 779.807 457.223 778.412 468.169C 777.883 472.322 781.522 474.953 785.004 476.061C 792.036 478.298 798.672 479 806 479C 827.74 478.999 846.718 472.954 867 465.865C 874.91 463.1 883.592 462.336 890.772 457.621C 898.798 452.35 889.42 436.66 881 438.718M702 478C 702.103 481.123 702.161 484.432 706.059 484.682C 711.435 485.027 716.623 482.108 722 482.377C 730.033 482.777 737.057 486.724 744.289 489.728C 751.705 492.809 759.465 494.717 766.039 499.549C 773.462 505.005 786.783 517.135 787.722 527C 788.232 532.357 779.267 538.32 782.047 542.581C 785.51 547.887 794.874 542.261 799.83 545.589C 812.402 554.03 817.94 573.95 820.536 588C 824.463 609.25 821.666 627.634 815.808 648C 812.785 658.51 810.415 669.217 805.327 679C 802.33 684.764 797.676 689.741 794.125 695.169C 791.248 699.567 789.218 704.541 786.336 708.985C 783.787 712.917 780.185 714.719 776.843 717.785C 772.806 721.489 769.71 725.868 764.985 728.87C 761.88 730.844 757.165 731.299 754.858 734.303C 750.654 739.777 751.833 750.717 753 757C 765.122 756.992 770.704 750.044 780.439 744.137C 783.054 742.551 786.16 742.068 788.7 740.362C 793.835 736.913 798.27 731.234 802.46 726.714C 814.633 713.581 823.673 699.46 832.572 684C 835.614 678.716 839.552 674.133 842.583 668.961C 844.75 665.262 845.003 660.735 847.136 657.015C 849.882 652.228 855.949 649.626 861 648C 860.929 645.839 861.085 643.39 859.397 641.74C 855.267 637.704 848.771 640.294 847.214 632.985C 845.208 623.57 847.375 614.465 846.961 605C 846.523 595.013 843.991 584.552 841.275 575C 838.687 565.895 832.539 558.413 828.422 550C 823.977 540.917 819.909 531.066 813.687 522.999C 810.416 518.759 806.096 515.307 802.286 511.576C 788.687 498.263 772.378 485.344 753.996 479.29C 750.051 477.991 745.998 478.315 742 477.406C 736.774 476.218 731.376 474.189 726 474.019C 718.165 473.772 709.534 476.007 702 478M632 483.439C 613.324 486.379 595.186 491.901 578 499.909C 573.809 501.862 568.872 503.151 565.319 506.243C 563.885 507.491 562.661 509.486 564.047 511.273C 566.068 513.878 571.159 512.909 574 513.039C 580.307 513.328 587.939 514.966 594 516.728C 601.215 518.824 608.044 522.179 615.039 524.846C 630.836 530.87 647.198 537.182 660.674 547.785C 678.168 561.547 694.518 582.317 702.907 603C 705.162 608.56 704.421 614.334 706.059 619.981C 706.899 622.879 708.662 625.17 712 624.508C 717.192 623.477 720.725 616.049 723.652 612.17C 735.039 597.077 737.919 571.994 732.989 554C 730.506 544.935 727.527 535.248 722.38 527.289C 703.727 498.444 666.823 477.958 632 483.439M1190 521C 1190 526.519 1189.52 531.523 1193.4 535.942C 1196.43 539.398 1205.34 540.674 1203.34 546.975C 1202.3 550.265 1198.81 552.027 1196.01 553.575C 1189.85 556.985 1184.76 558.474 1178 560.289C 1169.96 562.448 1161.2 566.916 1153 567.797C 1149.66 568.156 1146.33 567.187 1143 567.039C 1133.01 566.598 1122.86 566.341 1113 564.615C 1108.02 563.743 1101.71 565.156 1097.17 562.682C 1091.25 559.45 1088.02 550.368 1087.41 544C 1087.12 540.951 1089.38 535.459 1085.68 533.761C 1082.76 532.417 1079.48 534.359 1077.34 536.254C 1072.99 540.11 1070.28 544.726 1064 545.775C 1052.84 547.64 1039.39 538.969 1029 535.533C 1012.13 529.951 996.71 514.509 984.674 501.961C 980.185 497.281 977.557 491.953 972 488.194C 964.408 483.057 949.747 482.769 948.435 495.17C 947.556 503.482 958.645 511.82 963.251 517.629C 972.356 529.111 985.116 538.003 997 546.428C 1002.64 550.429 1008.56 554.173 1014 558.454C 1016.79 560.655 1019.04 563.54 1022.17 565.292C 1026.5 567.717 1031.48 568.562 1036 570.511C 1045.91 574.784 1055.93 577.734 1066 581.597C 1071.54 583.725 1076.4 587.306 1082 589.3C 1097.67 594.884 1116.4 597.585 1133 597.985C 1150.3 598.403 1166.69 594.766 1183 589.355C 1190.54 586.855 1198.07 584.79 1205 580.744C 1209.4 578.175 1212.77 574.25 1217.01 571.451C 1230.95 562.247 1242.96 551.979 1251.04 537C 1259.84 520.678 1262 501.14 1262 483C 1256.72 483.019 1253.84 485.032 1248.99 486.436C 1245.55 487.431 1242.08 487.184 1239.58 490.228C 1235.75 494.917 1236.04 502.188 1232.41 506.852C 1229.79 510.219 1225.48 508.912 1222.73 511.603C 1219.2 515.052 1220.04 520.952 1214.9 523.272C 1210.43 525.286 1202.76 525.83 1198.04 524.571C 1195.15 523.802 1192.89 521.805 1190 521M713.133 490.029C 705.103 494.601 711.125 502.453 715.699 506.344C 721.762 511.502 724.209 516.848 732.985 511.517C 734.281 510.73 735.64 509.81 736.656 508.671C 745.398 498.871 733.763 494.892 726 491.8C 722.182 490.279 717.163 487.734 713.133 490.029M396 589C 396.016 594.662 397.648 599.484 398.561 605C 399.097 608.238 398.989 611.662 400.343 614.714C 401.771 617.932 404.538 620.297 406.335 623.286C 410.013 629.404 413.053 636.28 415.453 643C 418.376 651.186 418.054 660.018 420.702 668C 422.368 673.02 425.957 677.456 428.43 682.089C 432.273 689.291 435.7 697.077 439.993 704C 445.55 712.961 454.448 719.566 461.651 727.04C 465.15 730.671 467.55 735.093 471.29 738.551C 476.431 743.304 482.521 746.12 487.995 750.26C 490.715 752.317 492.772 755.094 495.455 757.159C 502.662 762.703 510.914 766.005 519 769.826C 525.308 772.806 531.502 777.116 538.004 779.54C 545.674 782.4 554.119 782.908 562 784.746C 567.13 785.943 571.893 788.815 577 789.736C 580.635 790.392 584.36 789.747 588 790.518C 605.295 794.179 621.351 795.266 639 796.039C 652.908 796.648 667.388 796.456 681 792.705C 688.283 790.699 705 787.602 707.906 779.815C 709.869 774.555 715.182 754.754 704.985 755.369C 698.704 755.747 692.107 760.413 686 762.125C 678.789 764.146 671.333 764.241 664 765.3C 660.262 765.84 656.737 767.29 653 767.83C 636.168 770.263 621.512 766.639 605 765.104C 596.392 764.304 587.589 765.843 579 764.816C 554.224 761.851 528.179 752.231 509.344 735.251C 503.365 729.861 510.943 722.185 512.191 716C 512.665 713.654 513.669 709.937 511.396 708.184C 508.699 706.103 504.862 708.274 502 708.741C 497.058 709.547 491.71 708.836 487 707.24C 465.144 699.831 449.384 680.376 440.095 659.996C 434.104 646.853 429.52 632.664 425.113 619C 422.084 609.606 418.03 599.604 416.26 589.911C 414.419 579.83 413.779 569.196 412.424 559C 411.179 549.626 412.948 541.181 414.271 532C 414.833 528.098 416.143 523.029 412.682 520.108C 409.478 517.404 399.617 511.067 395.702 514.618C 392.062 517.92 391.397 525.448 390.845 530C 389.325 542.534 391.995 558.728 383.435 569.286C 380.421 573.004 369.199 580.522 372.047 585.906C 375.957 593.297 389.463 589.018 396 589M555.039 516.479C 547.958 517.994 538.129 526.842 534.653 533.015C 533.05 535.861 532.006 540.83 535.318 542.968C 538.024 544.714 541.232 543.045 544 542.455C 547.535 541.702 551.397 541.672 555 541.289C 559.046 540.86 562.962 541.886 567 541.985C 573.51 542.145 580.658 541.061 587 542.785C 592.969 544.408 602.846 550.084 608.941 548.664C 615.874 547.048 613.02 534.37 608.698 531.34C 604.713 528.547 599.409 527.392 595 525.421C 583.291 520.186 568.286 513.646 555.039 516.479M1142 516.702C 1134.71 519.122 1128.83 525.547 1123.41 530.625C 1119.5 534.283 1115.54 536.516 1112.29 541C 1109.24 545.213 1104.1 552.54 1111.98 555.203C 1118.25 557.323 1121.9 547.076 1124.02 543.005C 1124.99 541.14 1126.9 537.324 1129.66 538.346C 1132.24 539.303 1130.99 543.176 1130.49 545C 1129.14 549.894 1128.43 555.863 1135.02 556.758C 1136.29 556.932 1137.79 556.57 1139 556.195C 1141.75 555.346 1144.31 553.729 1145.4 550.956C 1146.95 546.987 1145.58 542.155 1146.38 538C 1147.55 531.863 1157.27 516.539 1146 516.088C 1144.66 516.035 1143.26 516.285 1142 516.702M620 535C 621.479 543.327 626.506 549.378 629.401 557C 633.722 568.374 639.525 581.153 642.04 593C 643.291 598.892 642.34 604.126 642.34 610C 642.34 616.215 642.866 621.75 642 628C 640.538 638.549 638.26 649.785 632.37 658.845C 630.498 661.723 625.198 666.567 628.043 670.397C 629.932 672.939 635.276 672 638 672C 649.027 672 658.275 668.002 667.999 663.181C 684.616 654.942 701.272 634.734 699.776 615C 699.456 610.782 698.523 604.936 696.995 601C 694.975 595.794 691.369 591.496 690 586C 679.877 580.596 673.671 568.909 666.441 560.44C 662.629 555.975 657.861 554.124 653.015 551.104C 642.962 544.839 632.327 535.264 620 535L620 535L946 393z" stroke="none" fill="#3A3427" fill-rule="nonzero" />
    <path transform="matrix(1 0 0 1 0 0)"  d="M561 550C 551.436 551.406 542.433 553.567 533 555.486C 528.93 556.314 524.847 555.984 521.004 557.834C 513.176 561.601 504.874 572.664 502.569 581C 497.611 598.932 492.787 623.522 508.831 637.806C 512.55 641.118 518.396 646.728 523.812 645.702C 533.162 643.932 526.468 629.483 526.029 624C 524.712 607.584 524.528 587.469 535.608 574.174C 540.117 568.763 546.485 564.311 552.001 559.986C 555.702 557.084 559.594 554.61 561 550M562 576C 565.299 565.1 579.998 571.816 587 574.54C 592.915 576.842 597.658 579.628 601.066 585.286C 603.69 589.641 605.902 598.225 610.418 600.953C 613.68 602.923 617.061 599.897 618.262 596.981C 620.9 590.574 622.535 580.863 621.714 574C 621.042 568.372 619.913 563.309 618 558C 603.778 556.203 591.129 555.929 577 558.801C 571.46 559.927 564.875 561.203 560.329 564.815C 556.945 567.504 556.936 571.334 554.841 574.741C 553.581 576.791 551.447 578.092 550.144 580.129C 547.007 585.034 546.662 595.536 552.34 598.968C 556.916 601.734 563.828 597.491 568 595.63C 572.622 593.568 578.869 594.016 582.941 591.258C 593.473 584.124 579.324 578.282 573 577.275C 569.354 576.695 565.687 576.158 562 576M834 855C 838.305 854.911 842.714 853.668 847 854.213C 850.665 854.679 854.981 857.289 858.276 854.396C 861.687 851.401 860.906 846.049 861.615 842C 863.246 832.688 865.209 823.932 868.435 815C 874.568 798.022 880.514 780.963 886.638 764C 888.143 759.831 890.684 756.147 892.161 752C 897.377 737.361 902.108 722.896 908.718 708.714C 912.955 699.624 918.501 692.519 923.596 684C 926.925 678.436 930.276 671.359 936 668C 936.559 659.672 943.476 653.484 948.153 647C 953.583 639.471 960.503 633.599 966.639 626.714C 971.903 620.807 976.232 614.025 981.465 608.089C 985.815 603.154 990.875 599.252 995.004 594.039C 999.034 588.949 1003.97 584.011 1008.33 579.184C 1010.44 576.854 1014.5 574.745 1013.34 571C 1010.82 562.921 998.873 558.136 992.039 562.554C 986.485 566.145 984.197 571.966 979.866 576.661C 976.597 580.203 972.191 582.188 969.039 585.917C 965.185 590.477 962.119 596.646 955.999 598.255C 948.584 600.205 942.337 591.453 934.985 590.304C 932.161 589.863 927.956 589.508 926.194 592.318C 922.641 597.988 932.332 602.465 932.887 608.001C 933.763 616.728 928.748 629.313 924.815 636.985C 923.24 640.058 920.74 642.297 918.784 645.089C 915.431 649.877 912.944 655.208 909.661 659.985C 905.759 665.665 901.13 670.991 897.76 677.039C 884.88 700.158 873.466 724.133 864.066 749C 861 757.11 859.62 765.863 856.675 774C 853.184 783.648 848.746 793.138 845.938 803C 843.72 810.792 843.426 819.204 841.275 827C 838.824 835.888 834.475 845.838 834 855M708 704L709 710C 717.68 712.365 721.508 719.665 723.066 728C 725.509 741.071 719.473 756.078 717.439 769C 716.659 773.953 716.823 779.012 716.13 784C 715.431 789.035 714.899 793.905 715.015 799C 715.076 801.696 716.069 805.229 714.731 807.725C 713.027 810.906 708.022 811.958 705 813.425C 698.282 816.688 689.63 821.603 686.858 829.089C 684.418 835.681 693.894 842.885 696 849C 711.932 845.39 723.904 832.517 739 827.594C 760.698 820.518 782.08 813.365 804 807.489C 812.378 805.243 821.72 807.379 829.772 803.856C 834.16 801.935 833.654 790.055 830.972 786.742C 828.852 784.124 823.925 785.122 821 784.957C 816.8 784.72 813.142 782.569 809 782.204C 805.809 781.923 803.075 783.233 800 783.741C 790.941 785.238 782.003 787.004 773 788.675C 766.096 789.957 758.674 790.249 752 792.545C 741.955 796 732.691 804.037 722 805C 724.786 795.191 739.031 796.096 741.581 785.996C 742.553 782.148 741.814 777.927 742.089 774C 742.668 765.748 743.776 756.079 745.379 748C 746.978 739.941 749.27 730.724 752.093 723C 753.339 719.591 755.367 716.532 756.292 713C 766.292 674.82 778.676 634.783 804.91 604.349C 810.839 597.47 809.187 588.273 807.255 580C 806.688 577.572 806.155 570.691 802.242 571.751C 799.76 572.423 797.821 575.54 796.305 577.425C 791.793 583.033 788.146 589.284 783.576 594.87C 764.747 617.878 752.802 646.971 741.194 674C 738.189 680.999 736.659 688.662 734.731 696C 733.791 699.576 732.978 703.598 729.532 705.667C 726.447 707.519 723.117 705.723 720 704.924C 716.043 703.909 712.052 704 708 704M1028 582C 1028 593.463 1028.74 604.613 1026.74 616C 1021.21 647.548 1009.59 677.907 997.251 707.286C 989.829 724.956 982.551 743.589 973.063 760.286C 968.834 767.729 965.496 775.229 961.971 783C 960.648 785.918 957.767 789.573 958.711 792.956C 959.732 796.612 964.074 797.923 966.911 799.806C 968.823 801.075 970.681 803.131 973.075 803.423C 979.228 804.174 981.752 794.243 983.496 790C 986.25 783.303 990.282 777.45 993.39 771C 997.376 762.732 1000.36 754.102 1004.8 746C 1009.36 737.688 1016.27 727.25 1025 722.849C 1028.89 720.892 1038.45 723.657 1040.38 719.566C 1041.61 716.958 1040.09 713.474 1039.21 711C 1036.87 704.436 1027.62 696.095 1028.76 688.961C 1030.03 681.02 1034.58 674.466 1036.96 666.997C 1042.36 650.063 1046.98 633.683 1049.28 616C 1050.06 609.99 1050.01 604.056 1050 598C 1049.99 595.583 1050.36 592.592 1048.97 590.46C 1045.85 585.666 1033.39 582.358 1028 582M628.103 595.877C 624.042 597.557 623.439 602.383 621.907 605.961C 619.57 611.42 616.768 617.02 612.964 621.59C 601.408 635.471 584.107 643.866 567 648.982C 560.639 650.883 552.582 650.415 546 649.831C 542.505 649.521 538.196 648.662 536.046 652.344C 531.975 659.318 543.709 665.984 548.039 669.053C 562.454 679.269 586.358 678.253 602.004 670.741C 619.166 662.5 632.117 644.067 632.961 625C 633.301 617.311 634.141 609.716 633.995 602.001C 633.925 598.294 632.91 593.89 628.103 595.877M598 600C 591.317 598.76 581.556 598.549 575.039 600.765C 572.218 601.724 568.806 603.827 568.492 607.094C 568.115 611.031 571.477 614.305 573.848 616.985C 578.906 622.703 585.547 628.267 593.057 622.431C 597.011 619.359 595.606 614.341 596.209 610C 596.684 606.581 597.822 603.482 598 600M544.316 606.043C 541.566 607.763 541.097 613.087 540.514 616C 539.641 620.357 539.15 627.774 541.988 631.566C 545.223 635.887 558.703 634.975 562.695 632.142C 572.889 624.908 560.92 619.452 556.711 613.985C 554.175 610.691 549.63 602.72 544.316 606.043M1277.3 628.046C 1274 630.152 1274.79 636.602 1274.04 640C 1272.92 645.041 1268.41 649.569 1269.25 654.945C 1269.81 658.549 1272.9 659.243 1275.28 661.42C 1281.08 666.741 1283.7 671.373 1291.96 666.096C 1303.07 658.995 1295.68 643.153 1289.05 635.09C 1286.7 632.228 1281.77 625.203 1277.3 628.046M602 758C 609.088 758 625.868 761.152 629.258 752.945C 631.831 746.715 628.088 739.125 631.938 733.109C 635.776 727.112 642.715 730.556 643 722C 640.287 720.775 637.808 719.065 634.985 718.057C 630.257 716.369 625.267 716.739 623.573 710.985C 622.338 706.792 623.309 701.883 625.081 698C 626.485 694.923 629.449 690.828 625.681 688.164C 621.77 685.399 607.619 682.315 603.394 685.029C 600.26 687.042 598.572 693.567 598.128 697.089C 596.692 708.477 594.806 720.489 596.184 732C 597.237 740.792 600.817 749.213 602 758M1159 772C 1160.97 779.367 1164.29 787.262 1162.4 794.999C 1160.16 804.166 1152.3 812.661 1152 822C 1155.3 822 1159.61 822.701 1162.71 821.397C 1165.75 820.123 1167.99 816.825 1170.1 814.425C 1176.67 806.945 1181.43 800.407 1179.54 790C 1177.89 780.955 1171.73 774.477 1167.12 766.911C 1163.56 761.069 1159.64 755.492 1154.7 750.725C 1153.24 749.319 1151.25 746.766 1149.02 746.747C 1144.61 746.71 1146.12 755.328 1145.91 758C 1145.06 768.559 1140.89 778.568 1134.71 786.996C 1132.13 790.505 1124.92 794.613 1124.54 799.04C 1123.8 807.832 1136.6 815.889 1143.71 810.436C 1151.84 804.201 1153.6 794.427 1155.49 785C 1156.45 780.176 1154.22 774.779 1159 772M884 1164C 883.207 1166.81 882.743 1170.17 881.077 1172.62C 871.675 1186.48 853.7 1186 839 1186C 829.829 1186 819.917 1185.84 811 1183.52C 806.186 1182.27 801.722 1179.94 797 1178.39C 789.907 1176.05 781.797 1175.66 775 1173.11C 765.957 1169.71 757.958 1162.39 749.83 1157.38C 744.594 1154.16 738.65 1151.89 733.58 1148.48C 730.135 1146.16 728.013 1142.71 724.871 1140.09C 711.1 1128.6 696.118 1115.63 693.443 1097C 692.67 1091.62 694.496 1084.76 697.277 1080.09C 700.001 1075.52 702.816 1073.66 703 1068C 695.963 1065.5 687.932 1064.61 682.005 1059.73C 676.02 1054.8 673.345 1047.78 670.11 1041C 666.677 1033.8 661.634 1027.08 660.26 1019C 658.058 1006.05 660.696 991.974 660.946 979C 661.043 973.974 659.631 968.964 659 964C 663.914 965.644 667.659 969.419 670 974C 675.449 975.401 680.102 979.042 685 981.761C 694.152 986.841 703.322 990.768 714 989.907C 718.824 989.517 726.597 987.629 727.589 981.985C 727.999 979.648 727.002 977.245 726.509 975.001C 726.133 973.287 726.132 971.028 724.976 969.603C 723.22 967.439 719.45 968.016 717 967.999C 711.745 967.963 705.879 967.491 701 965.351C 686.568 959.021 673.909 942.344 668.275 927.83C 663.613 915.819 664.896 898.247 668.135 886.001C 670.211 878.15 677.75 878.644 680 886C 683.469 885.897 685.895 885.019 689.089 883.745C 692.568 882.356 696.955 881.615 699.44 878.525C 703.765 873.149 700.909 865.403 698.386 860C 695.187 853.149 691.128 850.324 686.299 844.911C 679.72 837.535 674.024 829.15 667.39 821.714C 662.16 815.854 659.581 808.993 651.961 805.479C 646.901 803.146 643.099 805.632 638 805.515C 630.763 805.35 621.281 799.701 621.031 811C 621.003 812.254 621.051 813.651 621.434 814.856C 622.479 818.147 626.447 818.976 628.411 821.67C 636.24 832.409 645.62 840.867 655.17 850.138C 662.391 857.148 670.971 863.475 673 874C 666.841 871.179 661.879 864.028 654.911 863.133C 644.053 861.74 643.513 874.433 640.914 882C 635.395 898.074 637.251 917.399 643.371 933C 646.558 941.123 653.867 949.504 655 958C 652.705 957.103 650.427 955.793 647.998 955.299C 633.846 952.419 635.581 972.185 633.54 981C 631.903 988.074 629.028 994.664 628.185 1002C 627.422 1008.65 628.929 1016.37 629.714 1023C 630.787 1032.06 631.117 1041.22 633.809 1050C 636.124 1057.55 639.266 1064.59 641.911 1072C 645.214 1081.26 647.586 1090.32 652.62 1098.91C 658.376 1108.74 666.042 1117.64 672.477 1127.01C 688.332 1150.11 706.856 1170.36 732 1183.67C 751.674 1194.09 772.582 1201.66 794 1207.79C 799.216 1209.29 804.695 1209.01 810 1210.12C 818.792 1211.96 831.92 1218.12 836.775 1226.05C 839.116 1229.88 839.197 1234.69 840 1239C 845.517 1238.75 851.529 1237.29 855.235 1232.87C 857.999 1229.57 859.078 1225.21 862.143 1222.14C 865.364 1218.92 870.721 1216.57 875 1215.11C 878.894 1213.78 883.077 1214.03 887 1212.78C 892.17 1211.12 896.85 1208.06 902 1206.22C 915.345 1201.44 929.284 1197.25 941.996 1190.92C 954.972 1184.44 966.61 1175.08 978.17 1166.42C 986.999 1159.81 995.891 1154.08 1003.24 1145.68C 1006.97 1141.4 1009.56 1135.78 1012.63 1131C 1016.17 1125.51 1020.67 1120.58 1024.02 1115C 1029.25 1106.29 1032.85 1096.52 1038.05 1087.71C 1040.44 1083.67 1043.64 1080.11 1045.89 1076C 1050.3 1067.94 1052.37 1059.47 1055.59 1051C 1061.76 1034.79 1068.28 1017.55 1068.96 1000C 1069.14 995.428 1067.72 991.455 1067.18 987C 1066.03 977.384 1065.61 967.763 1063.74 958.17C 1062.73 952.972 1060.37 948.071 1058.92 943C 1057.42 937.74 1056.61 932.166 1054.9 927C 1048.73 908.448 1038.22 890.849 1027.46 874.714C 1009.73 848.1 988.569 824.15 961 807.354C 956.882 804.845 953.23 801.355 948.911 799.243C 937.998 793.908 924.012 789.207 912 787.429C 908.018 786.84 904.014 787.338 900.039 786.871C 896.916 786.505 894.203 784.975 890.989 785.062C 884.2 785.247 883.055 791.249 883.019 796.999C 883.005 799.303 882.929 802.216 885.318 803.397C 887.534 804.492 890.6 804.046 893 804.594C 900.671 806.347 908.472 807.595 916 809.96C 936.201 816.307 956.712 827.771 973 841.324C 1001.79 865.28 1018.21 897.378 1027.48 933C 1031.09 946.859 1036.04 960.528 1033 974.999C 1030.96 984.686 1021.57 984.314 1013.83 987.998C 1011 989.346 1004.93 990.672 1005.47 994.944C 1006.08 999.788 1014.05 996.019 1017 996.576C 1022.33 997.585 1028.19 1002.99 1030.03 1008C 1031.73 1012.62 1031 1018.16 1031 1023C 1031 1029.71 1032.05 1037.45 1030.45 1044C 1029 1049.89 1025.53 1055.27 1023.53 1061C 1017.49 1078.38 1008.99 1097.01 996.39 1110.73C 993.833 1113.51 990.055 1114.75 987.286 1117.33C 981.038 1123.15 975.999 1130.81 969.622 1136.31C 964.661 1140.6 958.521 1143.94 953.286 1147.95C 939.322 1158.64 926.007 1169.62 908 1172.67C 897.54 1174.44 893.025 1165.97 884 1164M862 1009C 861.627 1004.47 859.636 1000.45 859.129 996C 858.41 989.686 859.625 983.285 858.37 977C 857.068 970.477 854.162 963.704 854.083 957C 853.872 939.287 858.284 920.684 854.772 903.059C 853.707 897.718 841.749 895.248 837.001 895.069C 835.029 894.995 832.39 895.064 831.028 896.742C 829.304 898.866 829.618 903.382 829 906C 826.081 918.367 827.636 933.451 828.83 946C 829.788 956.061 827.885 965.976 828.004 976C 828.111 985.099 830.562 993.978 830.961 1003C 831.628 1018.11 830.42 1033.99 832.109 1049C 832.782 1054.99 837.132 1054.6 840.397 1058.43C 841.999 1060.31 841.925 1062.68 842 1065C 835.242 1065.49 830.046 1069.42 823 1067.15C 808.143 1062.37 801.172 1049.62 793.64 1037C 790.955 1032.5 787.279 1028.67 784.88 1024C 781.385 1017.2 779.22 1009.63 775.475 1003C 767.381 988.666 758.394 975.04 754.011 959C 752.121 952.085 748.181 945.828 746.474 939C 744.432 930.835 746.447 922.326 744.151 914C 742.561 908.238 739.809 903.605 733 904.25C 720.295 905.454 719.203 914.61 720.92 925C 722.224 932.891 723.112 941.328 725.37 949C 727.401 955.904 730.784 962.843 731.791 970C 732.197 972.887 731.69 975.878 732.471 978.714C 734.501 986.088 739.084 994.318 742.796 1001C 744.929 1004.84 748.099 1007.97 749.895 1012C 762.677 1040.67 776.883 1067.4 795.062 1093.09C 802.37 1103.41 809.701 1115.11 819.079 1123.74C 826.087 1130.18 838.346 1138.73 848 1139.87C 856.073 1140.83 864.366 1138.35 872 1136.02C 881.105 1133.25 887.406 1130.88 892.157 1122C 895.82 1115.14 899.152 1105.72 896.101 1098.01C 893.979 1092.65 886.106 1088.38 888.049 1082C 889.488 1077.28 893.416 1073.1 896.052 1069C 900.817 1061.6 905.159 1054.55 911.286 1048.09C 915.654 1043.48 920.68 1039.79 924.62 1034.71C 927.817 1030.6 929.015 1025.73 931.514 1021.29C 936.042 1013.22 940.172 1005.3 941.74 996C 942.713 990.226 942 983.845 942 978C 942 973.19 942.599 967.916 941.741 963.17C 939.34 949.902 932.727 937.306 931 924C 921.437 920.683 918.19 929.649 917.184 938C 916.691 942.096 915.635 947.991 916.538 952C 917.9 958.053 921.278 962.421 920.907 969C 920.408 977.828 918.981 986.919 915.194 995C 913.185 999.289 909.417 1002.54 908 1007C 913.841 1006.54 917.135 1001.56 918 996L918 996L923 996C 922.3 1004.5 918.278 1008.32 911.861 1013.35C 908.05 1016.33 902.48 1017.36 900.263 1011.94C 894.363 997.521 901.731 977.152 905.525 963C 907.547 955.459 911.015 948.46 913.25 941C 914.509 936.796 914.254 932.261 915.421 928C 918.146 918.045 922.51 907.284 927.028 898C 929.234 893.466 932.303 889.471 934.577 885C 937.921 878.426 940.203 871.448 943.871 865C 947.31 858.956 952.848 852.308 955.142 845.834C 957.392 839.484 951.453 837.665 946.999 835.117C 944.374 833.614 941.223 831.499 938.133 833.071C 934.91 834.711 934.17 839.076 932.58 842C 928.755 849.037 924.472 855.878 920.806 862.996C 913.745 876.702 906.137 890.378 901.054 905.039C 899.697 908.955 900.334 913.114 898.871 917C 893.563 931.098 887.642 944.295 884.364 959C 882.094 969.185 879.377 978.955 876.594 989C 873.861 998.865 873.616 1006.37 862 1009M709 870C 715.96 868.759 722.774 864.146 728.999 860.832C 731.345 859.583 734.268 858.382 735.397 855.787C 737.157 851.739 735.527 846.169 735 842C 729.448 842.02 726.143 844.117 721 845.586C 716.423 846.894 711.739 847.396 709.179 852.093C 706.577 856.869 707.798 864.953 709 870M881 905C 888.478 904.43 892.09 892.828 893 886C 889.447 884.723 887.286 882.076 884.116 880.102C 875.789 874.917 865.244 868.53 856 865.363C 850.479 863.471 844.625 862.648 839 861.146C 835.925 860.325 833.175 858.578 830 858.143C 820.981 856.909 811.103 858 802 858C 792.499 858 782.436 857.055 773 858.184C 763.572 859.313 755.033 862.58 746 865.29C 742.122 866.453 738.018 866.695 734.17 867.971C 714.344 874.543 697.307 887.32 684.15 903.209C 677.039 911.796 670.388 921.855 682.425 930.253C 687.237 933.61 691.199 929.389 694.255 925.946C 703.694 915.316 711.149 906 723.961 899.174C 738.231 891.57 753.934 884.449 770 881.376C 782.014 879.078 794.915 880.083 807 880.911C 813.643 881.365 820.371 880.497 827 881.171C 831.549 881.633 835.58 883.59 840 884.525C 849.691 886.576 857.073 890.402 866.17 894.194C 872.58 896.865 878.246 897.97 881 905M760.04 901.48C 750.036 903.601 747.176 917.812 754.46 924.451C 758.775 928.383 768.132 927.615 768.587 935.005C 769.131 943.821 758.239 947.046 758.343 955.001C 758.402 959.48 762.217 969.614 767.951 968.627C 774.8 967.449 778.779 957.374 781.479 952C 783.188 948.599 785.841 945.598 787.121 942C 788.374 938.48 787.879 934.657 788.039 931C 788.414 922.469 789.438 914.471 782.491 907.802C 779.829 905.247 775.425 903.975 772 902.796C 768.175 901.48 764.063 900.627 760.04 901.48L760.04 901.48L561 550z" stroke="none" fill="#3A3427" fill-rule="nonzero" />
</g>
</svg>